<svg width="350" height="333" viewBox="0 0 350 333" fill="none" xmlns="http://www.w3.org/2000/svg">
<g clip-path="url(#clip0_1806_650)">
<path d="M166.51 0C74.55 0 0 74.5433 0 166.495C0 258.447 74.55 332.99 166.51 332.99C258.47 332.99 333.02 258.447 333.02 166.495C333.02 74.5433 258.48 0 166.51 0ZM101.92 235.639V235.719C101.71 237.629 101 239.168 99.75 240.418C98.47 241.708 96.86 242.378 95.11 242.378C93.04 242.378 91.3 241.668 90.08 240.338C88.9 239.048 88.29 237.449 88.29 235.569V97.4412C88.29 95.5514 88.97 93.8715 90.26 92.5917C91.55 91.3018 93.22 90.6318 95.11 90.6318C97 90.6318 98.68 91.3118 99.96 92.5917C101.25 93.8715 101.93 95.5514 101.93 97.4412V235.639H101.92ZM257 204.202C252.58 215.711 245.63 225.04 236.35 231.929C227.01 238.858 214.87 242.378 200.27 242.378H145.69C143.94 242.378 142.33 241.698 141.05 240.408C139.76 239.128 139.09 237.519 139.09 235.769V97.2312C139.09 95.4814 139.77 93.8715 141.06 92.5917C142.35 91.3018 143.95 90.6318 145.7 90.6318H200.28C211.11 90.6318 220.67 92.7316 228.68 96.8813C236.68 101.031 243.36 106.78 248.53 113.99C253.64 121.119 257.47 129.328 259.92 138.378C262.34 147.367 263.57 156.826 263.57 166.505C263.57 180.174 261.36 192.853 257.01 204.212L257 204.202Z" fill="#012041"/>
<path d="M237.78 122.449C233.69 116.709 228.33 112.12 221.85 108.82C215.36 105.51 207.4 103.831 198.17 103.831H152.71V229.159H198.17C210.46 229.159 220.47 226.39 227.92 220.91C235.41 215.411 240.99 207.871 244.52 198.492C248.11 188.943 249.93 178.174 249.93 166.485C249.93 158.206 248.93 150.146 246.96 142.527C245.01 135.018 241.92 128.258 237.78 122.439V122.449Z" fill="#012041"/>
<path d="M349.36 3.79963C349.01 3.44966 348.52 3.24968 347.88 3.19969C347.51 3.14969 347.09 3.19969 346.64 3.35967C346.19 3.51966 345.77 3.83963 345.4 4.31959L335.35 20.8781L325.8 4.31959C325.53 3.88962 325.21 3.59965 324.84 3.43966C324.47 3.27968 324.04 3.19969 323.56 3.19969C322.97 3.19969 322.49 3.39967 322.12 3.79963C321.75 4.1996 321.56 4.66955 321.56 5.19951V29.9973C321.56 30.5272 321.75 30.9972 322.12 31.3971C322.49 31.7971 323 31.9971 323.64 31.9971C324.28 31.9971 324.77 31.7971 325.12 31.3971C325.47 30.9972 325.69 30.5272 325.8 29.9973V11.8989L333.56 25.7577C333.67 26.0276 333.87 26.2376 334.16 26.3976C334.45 26.5576 334.81 26.6376 335.24 26.6376C335.67 26.6376 336.03 26.5576 336.32 26.3976C336.61 26.2376 336.81 26.0276 336.92 25.7577L345.48 11.249V29.9973C345.48 30.5272 345.68 30.9972 346.08 31.3971C346.48 31.7971 347 31.9971 347.64 31.9971C348.23 31.9971 348.75 31.7971 349.2 31.3971C349.65 30.9972 349.88 30.5272 349.88 29.9973V5.19951C349.88 4.60956 349.71 4.1496 349.36 3.79963Z" fill="#012041"/>
<path d="M314.36 3.19971H296.36C295.83 3.19971 295.36 3.35969 294.96 3.67966C294.56 3.99963 294.36 4.47959 294.36 5.11953C294.36 5.70948 294.56 6.19944 294.96 6.5994C295.36 6.99936 295.83 7.19935 296.36 7.19935H303.08V29.1974C303.08 29.7273 303.27 30.1973 303.64 30.5972C304.01 30.9972 304.49 31.1972 305.08 31.1972C305.72 31.1972 306.23 30.9972 306.6 30.5972C306.97 30.1973 307.16 29.7273 307.16 29.1974V7.19935H314.36C315 7.19935 315.49 6.99936 315.84 6.5994C316.19 6.19944 316.36 5.70948 316.36 5.11953C316.36 4.47959 316.16 3.99963 315.76 3.67966C315.36 3.35969 314.89 3.19971 314.36 3.19971Z" fill="#012041"/>
</g>
<defs>
<clipPath id="clip0_1806_650">
<rect width="350" height="333" fill="white"/>
</clipPath>
</defs>
</svg>
